<?xml version="1.0" encoding="utf-8"?>
<!-- Generator: Adobe Illustrator 16.0.0, SVG Export Plug-In . SVG Version: 6.00 Build 0)  -->
<!DOCTYPE svg PUBLIC "-//W3C//DTD SVG 1.1//EN" "http://www.w3.org/Graphics/SVG/1.1/DTD/svg11.dtd">
<svg version="1.1" id="Layer_1" xmlns="http://www.w3.org/2000/svg" xmlns:xlink="http://www.w3.org/1999/xlink" x="0px" y="0px" viewBox="0 0 120 720" enable-background="new 0 0 120 720" xml:space="preserve">
<g>
	<g>
		
			<rect x="76.483" y="14.726" transform="matrix(0.8301 -0.5576 0.5576 0.8301 2.9715 46.9133)" fill="#543F43" width="3.976" height="7.708"/>
		<path fill="#543F43" d="M76.578,14.188c0.309,0.461,0.185,1.087-0.277,1.397c-0.46,0.31-1.087,0.187-1.395-0.275
			c-0.312-0.462-0.188-1.087,0.273-1.397C75.641,13.604,76.268,13.727,76.578,14.188z"/>
		<g>
			<path fill="#543F43" d="M79.233,23.288c0.477,0.979,2.553,5.149,5.139,9.001l0.494-0.332c-2.646-3.941-4.754-8.224-5.134-9.004
				L79.233,23.288z"/>
			<path fill="#543F43" d="M79.932,22.82c0.513,0.893,2.848,4.918,5.45,8.792l0.492-0.331c-2.63-3.917-4.988-7.993-5.446-8.793
				L79.932,22.82z"/>
			
				<rect x="78.586" y="26.181" transform="matrix(-0.5575 -0.8302 0.8302 -0.5575 108.4711 110.7696)" fill="#543F43" width="10.338" height="0.592"/>
			<path fill="#543F43" d="M81.324,21.885c0.563,0.728,3.445,4.455,6.074,8.372l0.494-0.33c-2.602-3.874-5.442-7.56-6.075-8.373
				L81.324,21.885z"/>
			<path fill="#543F43" d="M82.017,21.419c0.579,0.646,3.747,4.218,6.392,8.16l0.493-0.331c-2.586-3.853-5.66-7.352-6.386-8.164
				L82.017,21.419z"/>
		</g>
	</g>
	<path fill="#00A9AC" d="M91.99,49.726c0-18.165-14.723-32.886-32.886-32.886c-18.164,0-32.887,14.722-32.887,32.886v53.489H91.99
		V49.726z"/>
	<circle fill="#FFFFFF" cx="43.521" cy="42.524" r="13.27"/>
	<circle fill="#FFFFFF" cx="73.987" cy="42.524" r="13.271"/>
	<g>
		<circle fill="#664A50" cx="43.522" cy="42.524" r="5.925"/>
		<circle fill="#FFFFFF" cx="41.116" cy="39.742" r="0.875"/>
		<circle fill="#664A50" cx="73.987" cy="42.524" r="5.925"/>
		<circle fill="#FFFFFF" cx="71.583" cy="39.742" r="0.875"/>
	</g>
	<polygon fill="#00A9AC" points="40.189,111 40.189,111 36.717,103.031 43.662,103.031 	"/>
	<polygon fill="#00A9AC" points="77.372,111 77.372,111 80.846,103.031 73.898,103.031 	"/>
	<path fill="#3FBFC4" d="M87.673,91.323c0.754-0.461,4.18-2.705,4.18-5.584h-1.047c0,1.903-2.359,3.759-3.521,4.483
		c-1.129-0.703-3.374-2.471-3.507-4.316c1.049-0.682,3.72-2.66,3.896-5.154c0.754-0.46,4.18-2.704,4.18-5.584h-1.047
		c0,1.903-2.359,3.76-3.521,4.482c-1.129-0.703-3.374-2.47-3.507-4.316c1.084-0.705,3.911-2.795,3.911-5.413h-1.047
		c0,1.903-2.355,3.76-3.52,4.482c-1.108-0.688-3.298-2.41-3.497-4.218c0.004-0.088,0.019-0.175,0.019-0.264h-1.088
		c0,0.089,0.014,0.175,0.021,0.264c-0.204,1.809-2.39,3.53-3.501,4.218c-1.108-0.688-3.296-2.407-3.499-4.216
		c0.007-0.088,0.021-0.175,0.021-0.266h-1.089c0,0.091,0.015,0.178,0.022,0.266c-0.204,1.809-2.391,3.528-3.503,4.216
		c-1.105-0.688-3.295-2.407-3.497-4.216c0.007-0.088,0.021-0.175,0.021-0.266h-1.092c0,0.091,0.016,0.178,0.024,0.266
		c-0.203,1.809-2.391,3.528-3.502,4.216c-1.107-0.688-3.296-2.407-3.499-4.216c0.007-0.088,0.024-0.175,0.024-0.266h-1.09
		c0,0.091,0.012,0.178,0.021,0.266c-0.203,1.809-2.391,3.528-3.5,4.216c-1.108-0.688-3.299-2.41-3.499-4.218
		c0.006-0.088,0.021-0.175,0.021-0.264h-1.09c0,0.089,0.016,0.175,0.021,0.264c-0.2,1.809-2.391,3.53-3.498,4.218
		c-1.109-0.688-3.299-2.407-3.501-4.216c0.007-0.088,0.021-0.175,0.021-0.266h-1.088c0,0.091,0.014,0.178,0.021,0.266
		c-0.203,1.809-2.392,3.528-3.499,4.216c-1.163-0.722-3.521-2.579-3.521-4.482h-1.049c0,2.827,3.304,5.042,4.139,5.558
		c-0.233,1.792-2.394,3.488-3.491,4.17c-1.163-0.722-3.519-2.58-3.519-4.482h-1.05c0,2.627,2.855,4.728,3.931,5.424
		c0.074,2.778,3.302,4.95,4.129,5.458c-0.233,1.791-2.394,3.489-3.491,4.171c-1.163-0.724-3.519-2.58-3.519-4.483h-1.05
		c0,2.627,2.855,4.728,3.931,5.424c0.074,2.781,3.302,4.951,4.129,5.459c-0.233,1.791-2.394,3.487-3.491,4.171
		c-1.163-0.723-3.519-2.579-3.519-4.483h-1.05c0,3.167,4.15,5.572,4.33,5.673l0.238,0.136l0.239-0.136
		c0.136-0.078,2.654-1.545,3.783-3.673c1.13,2.128,3.647,3.595,3.784,3.673l0.239,0.136l0.237-0.136
		c0.138-0.078,2.654-1.545,3.786-3.671c1.129,2.126,3.646,3.594,3.784,3.671l0.237,0.136l0.24-0.136
		c0.138-0.078,2.655-1.544,3.782-3.671c1.132,2.127,3.648,3.594,3.788,3.671l0.234,0.136l0.24-0.136
		c0.138-0.078,2.654-1.545,3.783-3.671c1.13,2.126,3.647,3.594,3.786,3.671l0.237,0.136l0.241-0.136
		c0.136-0.078,2.653-1.545,3.782-3.673c1.129,2.128,3.646,3.595,3.783,3.673l0.239,0.136l0.238-0.136
		c0.138-0.078,2.656-1.545,3.784-3.671c1.129,2.126,3.646,3.594,3.785,3.671l0.239,0.136l0.237-0.136
		c0.138-0.08,2.686-1.563,3.801-3.714c1.116,2.15,3.666,3.634,3.806,3.714l0.238,0.136l0.237-0.136
		c0.18-0.101,4.331-2.506,4.331-5.673h-1.047c0,1.904-2.359,3.76-3.521,4.483c-1.129-0.701-3.374-2.471-3.507-4.314
		C84.826,95.796,87.497,93.818,87.673,91.323z M83.24,77.124c0.866,1.674,2.601,2.94,3.394,3.46
		c-0.073,1.871-2.367,3.681-3.512,4.392c-1.108-0.69-3.298-2.41-3.497-4.219c0-0.01,0-0.021,0-0.029
		C80.25,80.341,82.278,78.98,83.24,77.124z M79.1,82.494c0.975,1.834,2.974,3.175,3.596,3.56c-0.234,1.79-2.395,3.486-3.493,4.168
		c-1.109-0.69-3.299-2.41-3.5-4.217c0-0.027,0.002-0.056,0.004-0.083C76.488,85.416,78.215,84.159,79.1,82.494z M75.706,75.351
		c0.782-0.507,2.509-1.764,3.394-3.429c0.975,1.834,2.974,3.175,3.596,3.561c-0.234,1.789-2.395,3.485-3.493,4.167
		c-1.109-0.689-3.299-2.409-3.5-4.217C75.702,75.408,75.704,75.379,75.706,75.351z M75.178,77.169
		c0.882,1.66,2.604,2.912,3.386,3.422c0.004,0.055,0.01,0.109,0.014,0.165c-0.204,1.809-2.39,3.529-3.501,4.219
		c-1.108-0.69-3.296-2.407-3.499-4.216c0.001-0.011,0.001-0.021,0.003-0.03C72.201,80.344,74.205,79.004,75.178,77.169z
		 M71.053,82.494c0.973,1.829,2.968,3.167,3.593,3.557c-0.233,1.791-2.391,3.489-3.49,4.171c-1.107-0.69-3.298-2.41-3.498-4.22
		c0.001-0.026,0.001-0.054,0.004-0.081C68.44,85.416,70.171,84.159,71.053,82.494z M67.661,75.351
		c0.779-0.507,2.51-1.764,3.392-3.429c0.973,1.831,2.968,3.169,3.593,3.558c-0.233,1.792-2.391,3.488-3.49,4.17
		c-1.107-0.689-3.298-2.41-3.498-4.219C67.658,75.404,67.658,75.376,67.661,75.351z M67.133,77.167
		c0.88,1.661,2.603,2.914,3.384,3.424c0.006,0.056,0.01,0.111,0.015,0.167c-0.204,1.809-2.391,3.526-3.503,4.216
		c-1.105-0.69-3.295-2.407-3.497-4.216c0.001-0.011,0.001-0.021,0.001-0.03C64.153,80.344,66.158,79.004,67.133,77.167z
		 M63.008,82.494c0.971,1.829,2.964,3.167,3.594,3.557c-0.234,1.791-2.392,3.489-3.492,4.171c-1.107-0.69-3.298-2.41-3.501-4.217
		c0.004-0.027,0.004-0.056,0.008-0.083C60.396,85.416,62.124,84.16,63.008,82.494z M59.616,75.351
		c0.779-0.507,2.508-1.762,3.392-3.427c0.971,1.829,2.964,3.167,3.594,3.556c-0.234,1.792-2.392,3.488-3.492,4.17
		c-1.107-0.689-3.298-2.409-3.501-4.217C59.612,75.408,59.612,75.379,59.616,75.351z M59.086,77.169
		c0.882,1.66,2.604,2.912,3.387,3.422c0.003,0.056,0.008,0.111,0.013,0.167c-0.203,1.809-2.391,3.526-3.502,4.216
		c-1.107-0.69-3.296-2.407-3.499-4.216c0-0.011,0-0.021,0.003-0.03C56.109,80.344,58.112,79.004,59.086,77.169z M54.961,82.494
		c0.972,1.829,2.968,3.167,3.594,3.557c-0.233,1.791-2.392,3.489-3.492,4.171c-1.106-0.69-3.296-2.41-3.497-4.217
		c0-0.027,0.002-0.056,0.006-0.083C52.349,85.416,54.078,84.159,54.961,82.494z M51.571,75.351c0.777-0.507,2.507-1.764,3.39-3.429
		c0.972,1.831,2.968,3.169,3.594,3.558c-0.233,1.792-2.392,3.488-3.492,4.17c-1.106-0.689-3.296-2.409-3.497-4.217
		C51.565,75.408,51.567,75.379,51.571,75.351z M51.04,77.169c0.882,1.66,2.604,2.912,3.386,3.422
		c0.004,0.056,0.009,0.111,0.014,0.167c-0.203,1.809-2.391,3.526-3.5,4.216c-1.108-0.69-3.299-2.41-3.499-4.219
		c0-0.01,0-0.021,0.002-0.027C48.063,80.345,50.066,79.004,51.04,77.169z M46.916,82.494c0.972,1.829,2.965,3.167,3.594,3.557
		c-0.233,1.791-2.393,3.489-3.492,4.171c-1.107-0.69-3.297-2.41-3.499-4.217c0.003-0.027,0.003-0.056,0.007-0.083
		C44.306,85.416,46.032,84.159,46.916,82.494z M43.525,75.351c0.78-0.507,2.507-1.764,3.391-3.429
		c0.972,1.831,2.965,3.169,3.594,3.558c-0.233,1.792-2.393,3.488-3.492,4.17c-1.107-0.689-3.297-2.409-3.499-4.217
		C43.521,75.408,43.521,75.379,43.525,75.351z M42.996,77.169c0.881,1.66,2.602,2.912,3.384,3.422
		c0.005,0.055,0.007,0.109,0.013,0.165c-0.2,1.809-2.391,3.529-3.498,4.219c-1.109-0.69-3.299-2.407-3.501-4.216
		c0.001-0.011,0.001-0.021,0.003-0.03C40.019,80.344,42.021,79.004,42.996,77.169z M38.87,82.494
		c0.97,1.829,2.966,3.167,3.593,3.557c-0.232,1.791-2.391,3.489-3.49,4.171c-1.109-0.69-3.3-2.41-3.5-4.22
		c0.004-0.026,0.004-0.054,0.006-0.081C36.258,85.416,37.986,84.159,38.87,82.494z M35.479,75.351
		c0.779-0.507,2.508-1.764,3.392-3.429c0.97,1.831,2.966,3.169,3.593,3.558c-0.232,1.792-2.391,3.488-3.49,4.17
		c-1.109-0.689-3.3-2.41-3.5-4.219C35.477,75.404,35.477,75.376,35.479,75.351z M31.348,80.731c0.615-0.381,2.626-1.725,3.602-3.564
		c0.882,1.661,2.604,2.914,3.385,3.424c0.006,0.056,0.01,0.111,0.014,0.167c-0.203,1.809-2.392,3.526-3.499,4.216
		C33.734,84.283,31.531,82.55,31.348,80.731z M34.849,95.547c-1.114-0.692-3.317-2.428-3.501-4.244
		c0.615-0.382,2.626-1.725,3.602-3.564c0.882,1.66,2.604,2.915,3.385,3.423c0.006,0.056,0.01,0.112,0.014,0.167
		C38.145,93.137,35.956,94.858,34.849,95.547z M38.973,100.792c-1.109-0.689-3.3-2.41-3.5-4.219
		c0.004-0.026,0.004-0.054,0.006-0.081c0.779-0.508,2.508-1.763,3.392-3.427c0.97,1.83,2.966,3.166,3.593,3.556
		C42.23,98.412,40.072,100.108,38.973,100.792z M42.895,95.547c-1.109-0.689-3.299-2.411-3.501-4.217
		c0.001-0.01,0.001-0.021,0.003-0.03c0.622-0.386,2.624-1.725,3.6-3.561c0.881,1.662,2.602,2.915,3.384,3.423
		c0.005,0.056,0.007,0.11,0.013,0.165C46.192,93.136,44.002,94.858,42.895,95.547z M47.018,100.792
		c-1.107-0.689-3.297-2.409-3.499-4.216c0.003-0.028,0.003-0.057,0.007-0.083c0.78-0.508,2.507-1.763,3.391-3.427
		c0.972,1.83,2.965,3.166,3.594,3.556C50.276,98.412,48.117,100.108,47.018,100.792z M50.939,95.547
		c-1.108-0.689-3.299-2.412-3.499-4.22c0-0.009,0-0.019,0.002-0.027c0.621-0.384,2.624-1.725,3.598-3.561
		c0.882,1.662,2.604,2.915,3.386,3.423c0.004,0.056,0.009,0.112,0.014,0.167C54.236,93.137,52.049,94.858,50.939,95.547z
		 M55.062,100.792c-1.106-0.689-3.296-2.409-3.497-4.216c0-0.028,0.002-0.057,0.006-0.083c0.777-0.508,2.507-1.763,3.39-3.427
		c0.972,1.83,2.968,3.166,3.594,3.556C58.321,98.412,56.163,100.108,55.062,100.792z M58.983,95.547
		c-1.107-0.689-3.296-2.411-3.499-4.217c0-0.01,0-0.021,0.003-0.03c0.622-0.386,2.625-1.725,3.599-3.561
		c0.882,1.662,2.604,2.915,3.387,3.423c0.003,0.056,0.008,0.112,0.013,0.167C62.282,93.137,60.095,94.858,58.983,95.547z
		 M63.109,100.792c-1.107-0.689-3.298-2.409-3.501-4.216c0.004-0.028,0.004-0.057,0.008-0.083c0.779-0.508,2.508-1.762,3.392-3.425
		c0.971,1.828,2.964,3.164,3.594,3.554C66.367,98.412,64.21,100.108,63.109,100.792z M67.028,95.547
		c-1.105-0.689-3.295-2.411-3.497-4.217c0.001-0.01,0.001-0.021,0.001-0.03c0.621-0.386,2.626-1.725,3.601-3.561
		c0.88,1.66,2.603,2.915,3.384,3.423c0.006,0.056,0.01,0.112,0.015,0.167C70.327,93.137,68.141,94.858,67.028,95.547z
		 M71.155,100.792c-1.107-0.689-3.298-2.41-3.498-4.219c0.001-0.026,0.001-0.054,0.004-0.081c0.779-0.508,2.51-1.763,3.392-3.427
		c0.973,1.83,2.968,3.166,3.593,3.556C74.412,98.412,72.255,100.108,71.155,100.792z M75.076,95.547
		c-1.108-0.689-3.296-2.411-3.499-4.217c0.001-0.01,0.001-0.021,0.003-0.03c0.621-0.386,2.625-1.725,3.598-3.561
		c0.882,1.662,2.604,2.915,3.386,3.423c0.004,0.056,0.01,0.11,0.014,0.165C78.373,93.136,76.188,94.858,75.076,95.547z
		 M79.202,100.792c-1.109-0.689-3.299-2.409-3.5-4.216c0-0.028,0.002-0.057,0.004-0.083c0.782-0.508,2.509-1.763,3.394-3.427
		c0.975,1.833,2.974,3.174,3.596,3.559C82.461,98.415,80.301,100.109,79.202,100.792z M83.122,95.547
		c-1.108-0.689-3.298-2.412-3.497-4.22c0-0.01,0-0.019,0-0.029c0.625-0.387,2.653-1.746,3.615-3.604
		c0.866,1.674,2.601,2.941,3.394,3.459C86.561,93.027,84.267,94.835,83.122,95.547z"/>
	<path fill="#005C67" d="M31.396,54.484c-2.981-2.535-4.455-5.923-5.047-7.621c-0.082,0.944-0.132,1.898-0.132,2.862v53.489
		c9.091-9.007,9.522-26.188,9.522-32.599C35.74,64.203,35.534,58,31.396,54.484z"/>
	<path fill="#005C67" d="M91.99,49.726c0-1.296-0.084-2.57-0.23-3.829c-0.187,0.703-1.534,5.344-5.35,8.587
		c-4.136,3.516-4.343,9.719-4.343,16.132c0,6.411,0.431,23.592,9.522,32.599h0.4V49.726z"/>
	<path fill="#664A50" d="M54.765,54.484l-0.132,0.065l6.228,4.595l-1.631-4.595l-4.509-0.029
		C54.721,54.52,54.736,54.505,54.765,54.484z"/>
	<path fill="#543F43" d="M59.572,51.143C59.492,51.165,59.66,51.131,59.572,51.143c-2.067,0.307-4.425,3.05-4.808,3.341
		c-0.028,0.021-0.044,0.036-0.044,0.036l4.509,0.029c0,0,2.723-2.434,4.526-1.449C63.756,53.1,61.858,50.532,59.572,51.143z"/>
	<path fill="#543F43" d="M73.017,19.927c-3.681-3.207-7.408-6.689-13.912-6.689c-6.777,0-11.312,4.13-13.997,6.725
		c5.238,0.365,9.991,2.515,13.646,5.852C62.555,22.349,67.535,20.16,73.017,19.927z"/>
	<path d="M61.426,16.603c0,0,7.715,0.536,11.591,3.325c0,0-4.126-3.831-6.793-5.021C63.556,13.715,61.426,16.603,61.426,16.603z"/>
	<polygon fill="#543F43" points="33.271,11.891 33.507,12.715 61.426,16.603 84.515,12.126 84.632,11.301 56.83,4.94 	"/>
</g>
<g>
	<path fill="#BDAB8C" d="M27.292,227.723v63.771c0,5.945,5.089,10.762,11.367,10.762h40.424c6.278,0,11.366-4.816,11.366-10.762
		v-63.771H27.292z"/>
	<circle fill="#FFFFFF" cx="41.584" cy="250.42" r="11.424"/>
	<circle fill="#BDAB8C" cx="41.521" cy="239.914" r="0.433"/>
	<path fill="#BDAB8C" d="M40.123,239.998c0.04,0.238-0.118,0.461-0.352,0.504c-0.237,0.039-0.463-0.115-0.503-0.352
		c-0.043-0.236,0.115-0.463,0.351-0.504S40.081,239.762,40.123,239.998z"/>
	<path fill="#BDAB8C" d="M38.333,240.398c0.079,0.227-0.035,0.477-0.261,0.557c-0.226,0.082-0.475-0.031-0.556-0.258
		c-0.083-0.227,0.033-0.477,0.258-0.559C38.003,240.059,38.249,240.174,38.333,240.398z"/>
	<path fill="#BDAB8C" d="M36.639,241.105c0.118,0.207,0.048,0.473-0.16,0.596c-0.208,0.117-0.473,0.049-0.592-0.16
		c-0.122-0.209-0.051-0.475,0.157-0.596C36.253,240.828,36.519,240.898,36.639,241.105z"/>
	<path fill="#BDAB8C" d="M35.092,242.094c0.153,0.186,0.129,0.461-0.053,0.615c-0.185,0.152-0.459,0.131-0.611-0.053
		c-0.154-0.189-0.131-0.459,0.053-0.615C34.665,241.889,34.938,241.912,35.092,242.094z"/>
	<path fill="#BDAB8C" d="M33.743,243.336c0.181,0.156,0.206,0.432,0.052,0.615c-0.154,0.186-0.427,0.207-0.611,0.053
		c-0.184-0.156-0.209-0.428-0.056-0.611C33.283,243.209,33.558,243.186,33.743,243.336z"/>
	<path fill="#BDAB8C" d="M32.628,244.795c0.206,0.123,0.279,0.389,0.158,0.598c-0.12,0.205-0.384,0.279-0.593,0.158
		s-0.277-0.385-0.158-0.596C32.153,244.75,32.419,244.678,32.628,244.795z"/>
	<path fill="#BDAB8C" d="M31.783,246.424c0.227,0.086,0.341,0.336,0.262,0.562c-0.083,0.223-0.331,0.342-0.556,0.26
		c-0.228-0.084-0.342-0.332-0.263-0.561C31.311,246.463,31.559,246.346,31.783,246.424z"/>
	<path fill="#BDAB8C" d="M31.234,248.178c0.239,0.045,0.396,0.268,0.354,0.506c-0.043,0.234-0.266,0.395-0.505,0.354
		c-0.235-0.043-0.392-0.268-0.353-0.506C30.773,248.297,31,248.139,31.234,248.178z"/>
	<path fill="#BDAB8C" d="M31,249.996c0.239,0.004,0.434,0.199,0.438,0.439c-0.004,0.238-0.193,0.434-0.436,0.434
		s-0.435-0.193-0.437-0.436C30.567,250.195,30.76,250,31,249.996z"/>
	<path fill="#BDAB8C" d="M31.082,251.832c0.239-0.039,0.464,0.117,0.507,0.355c0.041,0.232-0.114,0.459-0.353,0.502
		c-0.237,0.043-0.463-0.115-0.507-0.354C30.692,252.1,30.849,251.875,31.082,251.832z"/>
	<path fill="#BDAB8C" d="M31.484,253.623c0.228-0.08,0.478,0.035,0.561,0.262c0.079,0.225-0.035,0.471-0.262,0.557
		c-0.228,0.084-0.473-0.033-0.559-0.26C31.147,253.955,31.26,253.707,31.484,253.623z"/>
	<path fill="#BDAB8C" d="M32.191,255.316c0.209-0.115,0.473-0.047,0.597,0.162c0.117,0.205,0.046,0.471-0.158,0.594
		c-0.212,0.121-0.473,0.051-0.599-0.16C31.916,255.703,31.983,255.439,32.191,255.316z"/>
	<path fill="#BDAB8C" d="M33.179,256.863c0.189-0.15,0.462-0.129,0.616,0.055c0.15,0.182,0.129,0.455-0.052,0.613
		c-0.188,0.154-0.458,0.129-0.616-0.055C32.975,257.293,32.998,257.02,33.179,256.863z"/>
	<path fill="#BDAB8C" d="M34.422,258.215c0.158-0.184,0.433-0.207,0.619-0.053c0.178,0.152,0.204,0.424,0.052,0.611
		c-0.156,0.186-0.428,0.207-0.615,0.053C34.297,258.674,34.27,258.398,34.422,258.215z"/>
	<path fill="#BDAB8C" d="M35.883,259.328c0.123-0.205,0.386-0.277,0.598-0.16c0.204,0.121,0.275,0.385,0.158,0.596
		c-0.122,0.211-0.386,0.279-0.598,0.158C35.836,259.803,35.763,259.537,35.883,259.328z"/>
	<path fill="#BDAB8C" d="M37.513,260.172c0.087-0.223,0.334-0.34,0.56-0.26c0.223,0.08,0.34,0.33,0.261,0.559
		c-0.084,0.227-0.33,0.342-0.559,0.26C37.55,260.646,37.434,260.398,37.513,260.172z"/>
	<path fill="#BDAB8C" d="M39.263,260.721c0.046-0.236,0.27-0.395,0.51-0.354c0.231,0.039,0.39,0.266,0.351,0.506
		c-0.042,0.236-0.267,0.393-0.506,0.352C39.384,261.184,39.226,260.959,39.263,260.721z"/>
	<path fill="#BDAB8C" d="M41.084,260.957c0.005-0.24,0.198-0.436,0.438-0.436c0.235-0.002,0.43,0.193,0.436,0.436
		c0,0.238-0.193,0.434-0.438,0.436C41.283,261.391,41.089,261.199,41.084,260.957z"/>
	<path fill="#BDAB8C" d="M42.918,260.871c-0.038-0.238,0.118-0.461,0.355-0.504c0.233-0.041,0.459,0.117,0.505,0.354
		c0.041,0.236-0.117,0.461-0.353,0.506C43.188,261.264,42.963,261.109,42.918,260.871z"/>
	<path fill="#BDAB8C" d="M44.709,260.469c-0.077-0.225,0.036-0.475,0.264-0.555c0.221-0.082,0.47,0.033,0.557,0.26
		c0.083,0.225-0.035,0.473-0.261,0.557C45.044,260.811,44.798,260.697,44.709,260.469z"/>
	<path fill="#BDAB8C" d="M46.403,259.764c-0.114-0.209-0.047-0.475,0.164-0.596c0.2-0.119,0.47-0.047,0.596,0.162
		c0.119,0.207,0.045,0.473-0.162,0.594C46.792,260.041,46.526,259.973,46.403,259.764z"/>
	<path fill="#BDAB8C" d="M47.95,258.775c-0.152-0.186-0.13-0.461,0.056-0.613c0.178-0.154,0.454-0.131,0.613,0.055
		c0.157,0.182,0.128,0.455-0.056,0.611C48.381,258.98,48.106,258.957,47.95,258.775z"/>
	<path fill="#BDAB8C" d="M49.301,257.531c-0.182-0.154-0.207-0.43-0.052-0.615c0.15-0.182,0.426-0.205,0.613-0.053
		c0.186,0.156,0.206,0.428,0.053,0.615C49.762,257.66,49.486,257.686,49.301,257.531z"/>
	<path fill="#BDAB8C" d="M50.414,256.072c-0.205-0.121-0.279-0.387-0.156-0.596c0.116-0.205,0.382-0.275,0.596-0.158
		c0.207,0.121,0.276,0.385,0.156,0.596C50.889,256.119,50.626,256.193,50.414,256.072z"/>
	<path fill="#BDAB8C" d="M51.259,254.443c-0.222-0.082-0.343-0.334-0.257-0.561c0.077-0.221,0.329-0.34,0.557-0.256
		c0.228,0.08,0.342,0.328,0.26,0.559C51.733,254.406,51.486,254.525,51.259,254.443z"/>
	<path fill="#BDAB8C" d="M51.807,252.693c-0.233-0.045-0.396-0.271-0.353-0.508c0.04-0.232,0.265-0.391,0.507-0.352
		c0.235,0.041,0.391,0.266,0.352,0.506C52.27,252.572,52.046,252.732,51.807,252.693z"/>
	<path fill="#BDAB8C" d="M52.041,250.871c-0.237-0.002-0.435-0.197-0.433-0.438c-0.002-0.236,0.192-0.43,0.438-0.434
		c0.239-0.004,0.431,0.191,0.433,0.438C52.477,250.674,52.285,250.869,52.041,250.871z"/>
	<path fill="#BDAB8C" d="M51.957,249.039c-0.233,0.039-0.463-0.119-0.505-0.359c-0.041-0.232,0.116-0.455,0.358-0.5
		c0.235-0.045,0.457,0.115,0.502,0.354C52.352,248.77,52.196,248.994,51.957,249.039z"/>
	<path fill="#BDAB8C" d="M51.558,247.248c-0.224,0.078-0.477-0.037-0.559-0.268c-0.083-0.219,0.034-0.467,0.264-0.553
		c0.224-0.084,0.471,0.033,0.558,0.262C51.896,246.914,51.786,247.162,51.558,247.248z"/>
	<path fill="#BDAB8C" d="M50.852,245.553c-0.208,0.115-0.477,0.047-0.596-0.164c-0.121-0.203-0.047-0.467,0.164-0.594
		c0.206-0.119,0.469-0.045,0.593,0.162C51.127,245.164,51.061,245.43,50.852,245.553z"/>
	<path fill="#BDAB8C" d="M49.861,244.008c-0.184,0.148-0.459,0.129-0.615-0.061c-0.152-0.178-0.127-0.451,0.061-0.611
		c0.18-0.152,0.451-0.129,0.611,0.057C50.068,243.574,50.046,243.848,49.861,244.008z"/>
	<path fill="#BDAB8C" d="M48.619,242.656c-0.155,0.18-0.432,0.207-0.617,0.049c-0.179-0.15-0.204-0.424-0.048-0.611
		c0.152-0.186,0.423-0.205,0.611-0.053C48.747,242.195,48.774,242.467,48.619,242.656z"/>
	<path fill="#BDAB8C" d="M47.159,241.543c-0.12,0.203-0.388,0.277-0.6,0.152c-0.201-0.113-0.271-0.377-0.15-0.592
		c0.117-0.207,0.38-0.275,0.592-0.158C47.208,241.066,47.279,241.33,47.159,241.543z"/>
	<path fill="#BDAB8C" d="M45.529,240.699c-0.083,0.221-0.334,0.34-0.562,0.256c-0.222-0.078-0.336-0.328-0.255-0.559
		c0.081-0.225,0.328-0.338,0.558-0.258C45.493,240.221,45.612,240.469,45.529,240.699z"/>
	<path fill="#BDAB8C" d="M43.777,240.15c-0.043,0.232-0.269,0.395-0.507,0.35c-0.232-0.037-0.388-0.262-0.348-0.506
		c0.039-0.234,0.262-0.389,0.505-0.352C43.659,239.686,43.819,239.91,43.777,240.15z"/>
	<circle fill="#FFFFFF" cx="75.865" cy="250.42" r="11.424"/>
	<circle fill="#BDAB8C" cx="75.803" cy="239.914" r="0.435"/>
	<path fill="#BDAB8C" d="M74.403,239.998c0.041,0.238-0.116,0.461-0.352,0.504c-0.237,0.039-0.461-0.115-0.504-0.352
		c-0.042-0.236,0.116-0.463,0.352-0.504C74.137,239.605,74.362,239.762,74.403,239.998z"/>
	<circle fill="#BDAB8C" cx="72.206" cy="240.548" r="0.435"/>
	<path fill="#BDAB8C" d="M70.92,241.105c0.116,0.207,0.047,0.473-0.16,0.596c-0.207,0.117-0.475,0.049-0.592-0.16
		c-0.123-0.209-0.05-0.475,0.156-0.596C70.533,240.828,70.799,240.898,70.92,241.105z"/>
	<path fill="#BDAB8C" d="M69.374,242.094c0.153,0.186,0.128,0.461-0.054,0.615c-0.184,0.152-0.459,0.131-0.612-0.053
		c-0.153-0.189-0.13-0.459,0.052-0.615C68.945,241.889,69.219,241.912,69.374,242.094z"/>
	<path fill="#BDAB8C" d="M68.022,243.336c0.184,0.156,0.208,0.432,0.053,0.615c-0.153,0.186-0.429,0.207-0.61,0.053
		c-0.186-0.156-0.208-0.428-0.054-0.611C67.563,243.209,67.838,243.186,68.022,243.336z"/>
	<path fill="#BDAB8C" d="M66.907,244.795c0.207,0.123,0.278,0.389,0.16,0.598c-0.121,0.205-0.386,0.279-0.594,0.158
		c-0.207-0.121-0.278-0.385-0.158-0.596C66.435,244.75,66.701,244.678,66.907,244.795z"/>
	<path fill="#BDAB8C" d="M66.064,246.424c0.228,0.086,0.34,0.336,0.259,0.562c-0.08,0.223-0.328,0.342-0.555,0.26
		c-0.228-0.084-0.342-0.332-0.262-0.561C65.592,246.463,65.839,246.346,66.064,246.424z"/>
	<path fill="#BDAB8C" d="M65.517,248.178c0.235,0.045,0.394,0.268,0.354,0.506c-0.048,0.234-0.268,0.395-0.503,0.354
		c-0.239-0.043-0.396-0.268-0.355-0.506C65.057,248.297,65.279,248.139,65.517,248.178z"/>
	<path fill="#BDAB8C" d="M65.279,249.996c0.244,0.004,0.436,0.199,0.438,0.439c-0.002,0.238-0.193,0.434-0.436,0.434
		c-0.239,0-0.434-0.193-0.435-0.436C64.848,250.195,65.042,250,65.279,249.996z"/>
	<path fill="#BDAB8C" d="M65.364,251.832c0.238-0.039,0.459,0.117,0.507,0.355c0.039,0.232-0.117,0.459-0.354,0.502
		s-0.46-0.115-0.504-0.354C64.973,252.1,65.129,251.875,65.364,251.832z"/>
	<path fill="#BDAB8C" d="M65.766,253.623c0.229-0.08,0.475,0.035,0.562,0.262c0.077,0.225-0.035,0.471-0.263,0.557
		c-0.228,0.084-0.473-0.033-0.559-0.26C65.427,253.955,65.539,253.707,65.766,253.623z"/>
	<path fill="#BDAB8C" d="M66.472,255.316c0.21-0.115,0.475-0.047,0.598,0.162c0.115,0.205,0.049,0.471-0.16,0.594
		c-0.21,0.121-0.475,0.051-0.596-0.16C66.195,255.703,66.266,255.439,66.472,255.316z"/>
	<path fill="#BDAB8C" d="M67.461,256.863c0.186-0.15,0.459-0.129,0.616,0.055c0.151,0.182,0.129,0.455-0.055,0.613
		c-0.185,0.154-0.455,0.129-0.615-0.055C67.257,257.293,67.276,257.02,67.461,256.863z"/>
	<path fill="#BDAB8C" d="M68.705,258.215c0.156-0.184,0.429-0.207,0.615-0.053c0.179,0.152,0.207,0.424,0.054,0.611
		c-0.155,0.186-0.429,0.207-0.616,0.053C68.578,258.674,68.552,258.398,68.705,258.215z"/>
	<path fill="#BDAB8C" d="M70.162,259.328c0.126-0.205,0.389-0.277,0.6-0.16c0.202,0.121,0.274,0.385,0.158,0.596
		c-0.123,0.211-0.387,0.279-0.597,0.158C70.118,259.803,70.045,259.537,70.162,259.328z"/>
	<path fill="#BDAB8C" d="M71.793,260.172c0.087-0.223,0.335-0.34,0.56-0.26c0.222,0.08,0.341,0.33,0.262,0.559
		c-0.083,0.227-0.332,0.342-0.562,0.26C71.831,260.646,71.712,260.398,71.793,260.172z"/>
	<path fill="#BDAB8C" d="M73.544,260.721c0.047-0.236,0.271-0.395,0.508-0.354c0.231,0.039,0.392,0.266,0.352,0.506
		c-0.041,0.236-0.267,0.393-0.506,0.352C73.664,261.184,73.504,260.959,73.544,260.721z"/>
	<path fill="#BDAB8C" d="M75.363,260.957c0.007-0.24,0.199-0.436,0.44-0.436c0.237-0.002,0.432,0.193,0.435,0.436
		c-0.001,0.238-0.194,0.434-0.437,0.436C75.562,261.391,75.368,261.199,75.363,260.957z"/>
	<path fill="#BDAB8C" d="M77.198,260.871c-0.036-0.238,0.119-0.461,0.356-0.504c0.23-0.041,0.458,0.117,0.505,0.354
		c0.041,0.236-0.116,0.461-0.355,0.506C77.471,261.264,77.245,261.109,77.198,260.871z"/>
	<path fill="#BDAB8C" d="M78.991,260.469c-0.079-0.225,0.036-0.475,0.263-0.555c0.22-0.082,0.472,0.033,0.559,0.26
		c0.082,0.225-0.035,0.473-0.263,0.557C79.325,260.811,79.076,260.697,78.991,260.469z"/>
	<path fill="#BDAB8C" d="M80.685,259.764c-0.116-0.209-0.046-0.475,0.164-0.596c0.201-0.119,0.469-0.047,0.593,0.162
		c0.121,0.207,0.048,0.473-0.161,0.594C81.073,260.041,80.809,259.973,80.685,259.764z"/>
	<path fill="#BDAB8C" d="M82.231,258.775c-0.152-0.186-0.13-0.461,0.055-0.613c0.18-0.154,0.455-0.131,0.614,0.055
		c0.155,0.182,0.13,0.455-0.055,0.611C82.662,258.98,82.388,258.957,82.231,258.775z"/>
	<path fill="#BDAB8C" d="M83.581,257.531c-0.181-0.154-0.207-0.43-0.049-0.615c0.146-0.182,0.423-0.205,0.61-0.053
		c0.187,0.156,0.207,0.428,0.056,0.615C84.041,257.66,83.768,257.686,83.581,257.531z"/>
	<path fill="#BDAB8C" d="M84.694,256.072c-0.204-0.121-0.278-0.387-0.153-0.596c0.114-0.205,0.38-0.275,0.593-0.158
		c0.208,0.121,0.277,0.385,0.156,0.596C85.169,256.119,84.908,256.193,84.694,256.072z"/>
	<path fill="#BDAB8C" d="M85.537,254.443c-0.221-0.082-0.342-0.334-0.256-0.561c0.078-0.221,0.327-0.34,0.561-0.256
		c0.223,0.08,0.338,0.328,0.257,0.559C86.016,254.406,85.769,254.525,85.537,254.443z"/>
	<path fill="#BDAB8C" d="M86.087,252.693c-0.233-0.045-0.393-0.271-0.35-0.508c0.039-0.232,0.265-0.391,0.504-0.352
		c0.235,0.041,0.392,0.266,0.352,0.506C86.548,252.572,86.327,252.732,86.087,252.693z"/>
	<path fill="#BDAB8C" d="M86.32,250.871c-0.235-0.002-0.435-0.197-0.432-0.438c-0.003-0.236,0.194-0.43,0.438-0.434
		c0.238-0.004,0.431,0.191,0.434,0.438C86.758,250.674,86.565,250.869,86.32,250.871z"/>
	<path fill="#BDAB8C" d="M86.239,249.039c-0.233,0.039-0.463-0.119-0.504-0.359c-0.041-0.232,0.116-0.455,0.355-0.5
		c0.236-0.045,0.457,0.115,0.502,0.354C86.633,248.77,86.477,248.994,86.239,249.039z"/>
	<path fill="#BDAB8C" d="M85.836,247.248c-0.221,0.078-0.475-0.037-0.558-0.268c-0.083-0.219,0.038-0.467,0.266-0.553
		c0.223-0.084,0.47,0.033,0.555,0.262C86.178,246.914,86.064,247.162,85.836,247.248z"/>
	<path fill="#BDAB8C" d="M85.132,245.553c-0.206,0.115-0.477,0.047-0.598-0.164c-0.118-0.203-0.044-0.467,0.167-0.594
		c0.205-0.119,0.466-0.045,0.591,0.162C85.409,245.164,85.342,245.43,85.132,245.553z"/>
	<path fill="#BDAB8C" d="M84.143,244.008c-0.186,0.148-0.459,0.129-0.616-0.061c-0.151-0.178-0.126-0.451,0.059-0.611
		c0.183-0.152,0.453-0.129,0.613,0.057C84.349,243.574,84.327,243.848,84.143,244.008z"/>
	<path fill="#BDAB8C" d="M82.899,242.656c-0.154,0.18-0.43,0.207-0.615,0.049c-0.18-0.15-0.205-0.424-0.05-0.611
		c0.153-0.186,0.426-0.205,0.612-0.053C83.028,242.195,83.056,242.467,82.899,242.656z"/>
	<path fill="#BDAB8C" d="M81.44,241.543c-0.119,0.203-0.388,0.277-0.597,0.152c-0.204-0.113-0.275-0.377-0.155-0.592
		c0.117-0.207,0.383-0.275,0.594-0.158C81.485,241.066,81.561,241.33,81.44,241.543z"/>
	<path fill="#BDAB8C" d="M79.811,240.699c-0.085,0.221-0.332,0.34-0.563,0.256c-0.22-0.078-0.333-0.328-0.253-0.559
		c0.079-0.225,0.329-0.338,0.559-0.258C79.776,240.221,79.895,240.469,79.811,240.699z"/>
	<path fill="#BDAB8C" d="M78.058,240.15c-0.043,0.232-0.271,0.395-0.508,0.35c-0.229-0.037-0.384-0.262-0.348-0.506
		c0.041-0.234,0.266-0.389,0.504-0.352C77.941,239.686,78.1,239.91,78.058,240.15z"/>
	<g>
		<circle fill="#806167" cx="43.324" cy="253.031" r="5.479"/>
		<circle fill="#FFFFFF" cx="41.225" cy="250.439" r="0.955"/>
		<path fill="#806167" d="M83.084,253.031c0,3.023-2.452,5.479-5.477,5.479c-3.03,0-5.48-2.455-5.48-5.479
			c0-3.025,2.45-5.479,5.48-5.479C80.632,247.553,83.084,250.006,83.084,253.031z"/>
		<circle fill="#FFFFFF" cx="75.505" cy="250.439" r="0.955"/>
	</g>
	<path fill="#A5906B" d="M58.793,228.958l-11.906-1.235H27.292v4.812c5.18,0.482,23.211,3.124,31.555,17.01v-0.182
		c8.424-13.906,26.575-16.484,31.603-16.938v-4.702H69.765l-10.972,1.14V228.958z"/>
	<path fill="#543F43" d="M101.135,221.939H17.073c-1.846,0-3.343,1.498-3.343,3.344c0,1.847,1.497,3.343,3.343,3.343h2.914
		c0,0,28.178,1.162,38.827,20.782c10.647-19.62,38.825-20.782,38.825-20.782h3.495c1.845,0,3.342-1.496,3.342-3.343
		C104.477,223.438,102.979,221.939,101.135,221.939z"/>
	<polygon fill="#806167" points="58.887,267.596 58.887,267.596 55.985,257.936 61.785,257.936 	"/>
	<path fill="#A5916C" d="M27.292,285.352c1.511-0.018,2.732-1.297,2.841-2.914c0.11,1.631,1.347,2.92,2.875,2.92
		c1.526,0,2.765-1.289,2.875-2.92c0.109,1.631,1.349,2.92,2.876,2.92c1.526,0,2.765-1.289,2.875-2.92
		c0.108,1.631,1.347,2.92,2.874,2.92c1.528,0,2.767-1.289,2.875-2.92c0.112,1.631,1.347,2.92,2.875,2.92s2.767-1.289,2.878-2.92
		c0.109,1.631,1.345,2.92,2.873,2.92c1.526,0,2.767-1.289,2.875-2.92c0.11,1.631,1.347,2.92,2.876,2.92
		c1.528,0,2.766-1.289,2.875-2.92c0.108,1.631,1.347,2.92,2.874,2.92c1.53,0,2.769-1.289,2.875-2.92
		c0.112,1.631,1.349,2.92,2.875,2.92c1.528,0,2.768-1.289,2.875-2.92c0.111,1.631,1.349,2.92,2.876,2.92
		c1.528,0,2.766-1.289,2.877-2.92c0.108,1.631,1.347,2.92,2.874,2.92c1.528,0,2.766-1.289,2.876-2.92
		c0.107,1.607,1.315,2.879,2.812,2.912v-3.141H27.292V285.352z M27.292,278.201v0.293c0.14,1.6,1.359,2.857,2.864,2.857
		c1.529,0,2.767-1.291,2.877-2.922c0.109,1.631,1.347,2.922,2.874,2.922c1.528,0,2.766-1.291,2.877-2.922
		c0.108,1.631,1.348,2.922,2.874,2.922s2.766-1.291,2.877-2.922c0.108,1.631,1.346,2.922,2.873,2.922s2.765-1.291,2.875-2.922
		c0.111,1.631,1.349,2.922,2.875,2.922c1.528,0,2.768-1.291,2.876-2.922c0.109,1.631,1.347,2.922,2.876,2.922
		c1.525,0,2.766-1.291,2.873-2.922c0.112,1.631,1.35,2.922,2.877,2.922c1.526,0,2.765-1.291,2.876-2.922
		c0.108,1.631,1.346,2.922,2.874,2.922c1.527,0,2.764-1.291,2.874-2.922c0.111,1.631,1.349,2.922,2.875,2.922
		c1.528,0,2.768-1.291,2.878-2.922c0.107,1.631,1.347,2.922,2.873,2.922c1.528,0,2.769-1.291,2.873-2.922
		c0.111,1.631,1.353,2.922,2.878,2.922c1.347,0,2.468-1.008,2.788-2.363v-0.787H27.292z M30.081,298.541
		c0.02-0.105,0.043-0.211,0.052-0.32c0.012,0.152,0.04,0.299,0.068,0.447c0.936,0.988,2.06,1.811,3.322,2.418
		c1.282-0.254,2.261-1.426,2.359-2.865c0.109,1.629,1.349,2.92,2.876,2.92c1.526,0,2.765-1.291,2.875-2.92
		c0.108,1.629,1.347,2.92,2.874,2.92c1.528,0,2.767-1.291,2.875-2.92c0.112,1.629,1.347,2.92,2.875,2.92s2.767-1.291,2.878-2.92
		c0.109,1.629,1.345,2.92,2.873,2.92c1.526,0,2.767-1.291,2.875-2.92c0.11,1.629,1.347,2.92,2.876,2.92
		c1.528,0,2.766-1.291,2.875-2.92c0.108,1.629,1.347,2.92,2.874,2.92c1.53,0,2.769-1.291,2.875-2.92
		c0.112,1.629,1.349,2.92,2.875,2.92c1.528,0,2.768-1.291,2.875-2.92c0.111,1.629,1.349,2.92,2.876,2.92
		c1.528,0,2.766-1.291,2.877-2.92c0.097,1.434,1.065,2.602,2.338,2.861c1.275-0.611,2.408-1.445,3.348-2.445
		c0.025-0.139,0.054-0.273,0.064-0.416c0.007,0.102,0.028,0.199,0.046,0.299c0.155-0.172,0.305-0.348,0.446-0.529H29.612
		C29.765,298.18,29.919,298.365,30.081,298.541z M27.292,286.387c0.14,1.6,1.359,2.855,2.864,2.855c1.529,0,2.767-1.291,2.877-2.922
		c0.109,1.631,1.347,2.922,2.874,2.922c1.528,0,2.766-1.291,2.877-2.922c0.108,1.631,1.348,2.922,2.874,2.922
		s2.766-1.291,2.877-2.922c0.108,1.631,1.346,2.922,2.873,2.922s2.765-1.291,2.875-2.922c0.111,1.631,1.349,2.922,2.875,2.922
		c1.528,0,2.768-1.291,2.876-2.922c0.109,1.631,1.347,2.922,2.876,2.922c1.525,0,2.766-1.291,2.873-2.922
		c0.112,1.631,1.35,2.922,2.877,2.922c1.526,0,2.765-1.291,2.876-2.922c0.108,1.631,1.346,2.922,2.874,2.922
		c1.527,0,2.764-1.291,2.874-2.922c0.111,1.631,1.349,2.922,2.875,2.922c1.528,0,2.768-1.291,2.878-2.922
		c0.107,1.631,1.347,2.922,2.873,2.922c1.528,0,2.769-1.291,2.873-2.922c0.111,1.631,1.353,2.922,2.878,2.922
		c1.347,0,2.468-1.008,2.788-2.363v-0.785H27.292V286.387z M27.292,291.494c0,0.594,0.064,1.166,0.161,1.734
		c1.436-0.109,2.574-1.342,2.68-2.902c0.11,1.633,1.347,2.922,2.875,2.922c1.526,0,2.765-1.289,2.875-2.922
		c0.109,1.633,1.349,2.922,2.876,2.922c1.526,0,2.765-1.289,2.875-2.922c0.108,1.633,1.347,2.922,2.874,2.922
		c1.528,0,2.767-1.289,2.875-2.922c0.112,1.633,1.347,2.922,2.875,2.922s2.767-1.289,2.878-2.922
		c0.109,1.633,1.345,2.922,2.873,2.922c1.526,0,2.767-1.289,2.875-2.922c0.11,1.633,1.347,2.922,2.876,2.922
		c1.528,0,2.766-1.289,2.875-2.922c0.108,1.633,1.347,2.922,2.874,2.922c1.53,0,2.769-1.289,2.875-2.922
		c0.112,1.633,1.349,2.922,2.875,2.922c1.528,0,2.768-1.289,2.875-2.922c0.111,1.633,1.349,2.922,2.876,2.922
		c1.528,0,2.766-1.289,2.877-2.922c0.108,1.633,1.347,2.922,2.874,2.922c1.528,0,2.766-1.289,2.876-2.922
		c0.105,1.553,1.23,2.777,2.653,2.9c0.095-0.566,0.159-1.141,0.159-1.732V290.1H27.292V291.494z M28.713,296.699
		c0.425,0.271,0.916,0.436,1.443,0.436c1.529,0,2.767-1.291,2.877-2.922c0.109,1.631,1.347,2.922,2.874,2.922
		c1.528,0,2.766-1.291,2.877-2.922c0.108,1.631,1.348,2.922,2.874,2.922s2.766-1.291,2.877-2.922
		c0.108,1.631,1.346,2.922,2.873,2.922s2.765-1.291,2.875-2.922c0.111,1.631,1.349,2.922,2.875,2.922
		c1.528,0,2.768-1.291,2.876-2.922c0.109,1.631,1.347,2.922,2.876,2.922c1.525,0,2.766-1.291,2.873-2.922
		c0.112,1.631,1.35,2.922,2.877,2.922c1.526,0,2.765-1.291,2.876-2.922c0.108,1.631,1.346,2.922,2.874,2.922
		c1.527,0,2.764-1.291,2.874-2.922c0.111,1.631,1.349,2.922,2.875,2.922c1.528,0,2.768-1.291,2.878-2.922
		c0.107,1.631,1.347,2.922,2.873,2.922c1.528,0,2.769-1.291,2.873-2.922c0.111,1.631,1.353,2.922,2.878,2.922
		c0.482,0,0.928-0.141,1.325-0.367c0.513-0.861,0.897-1.795,1.146-2.781H27.609C27.851,294.945,28.221,295.857,28.713,296.699z"/>
	<path fill="#B9683C" d="M27.324,261.682c0,0,15.224,14.002,0,26.645V261.682z"/>
	<path fill="#B9683C" d="M90.438,261.682c0,0-15.223,14.002,0,26.645V261.682z"/>
	<polygon fill="#BDAB8C" points="42.894,311 42.894,311 39.866,301.732 45.924,301.732 	"/>
	<polygon fill="#BDAB8C" points="74.853,311 74.853,311 77.884,301.732 71.825,301.732 	"/>
	<g>
		<rect x="97.595" y="230.597" fill="#543F43" width="4.415" height="8.56"/>
		<circle fill="#543F43" cx="99.655" cy="229.653" r="1.118"/>
		<g>
			<path fill="#543F43" d="M97.591,239.689c-0.166,1.197-0.833,6.326-0.833,11.479h0.659c0-5.273,0.707-10.525,0.842-11.479H97.591z
				"/>
			<path fill="#543F43" d="M98.524,239.689c-0.08,1.139-0.42,6.297-0.42,11.479h0.66c0-5.24,0.349-10.459,0.423-11.479H98.524z"/>
			<rect x="99.455" y="239.689" fill="#543F43" width="0.661" height="11.479"/>
			<path fill="#543F43" d="M100.387,239.689c0.071,1.02,0.419,6.238,0.419,11.479h0.658c0-5.182-0.337-10.34-0.417-11.479H100.387z"
				/>
			<path fill="#543F43" d="M101.313,239.689c0.135,0.953,0.842,6.205,0.842,11.479h0.66c0-5.152-0.668-10.281-0.835-11.479H101.313z
				"/>
		</g>
	</g>
</g>
<g>
	<path fill="#CD7B2D" d="M26.581,458.764C26.572,458.443,26.581,459.086,26.581,458.764L26.581,458.764z"/>
	<path fill="#B7697B" d="M92.745,455.688V428.17c0,0-3.389,5.174-8.156,4.357c-4.753-0.812-12.6-7.354-24.867-7.395v-0.004
		c-0.02,0-0.038,0.002-0.058,0.002c-0.022,0-0.04-0.002-0.061-0.002v0.004c-12.268,0.041-20.116,6.582-24.867,7.395
		c-4.768,0.816-8.155-4.357-8.155-4.357v30.594l0.013,34.469c3.473,3.318,7.443,6.121,11.783,8.289L41.303,511l2.24-7.27
		c5.074,1.824,10.539,2.82,16.232,2.82c5.661,0,11.094-0.984,16.142-2.787L78.149,511l2.906-9.42
		c4.346-2.156,8.324-4.947,11.808-8.255l0.007-34.793C92.87,457.576,92.824,456.628,92.745,455.688z"/>
	<polygon fill="#6A5055" points="56.708,461.883 62.881,461.883 59.875,466.868 	"/>
	<path fill="#6A5055" d="M81.139,471.47c-11.222,4.598,7.05,20.95,11.725,21.827l0.007-34.765c0-1.026-0.056-2.042-0.147-3.048
		C92.511,457.982,91.059,467.406,81.139,471.47z M92.87,458.532C92.87,458.7,92.87,458.366,92.87,458.532L92.87,458.532z
		 M26.581,458.764C26.572,458.443,26.581,459.086,26.581,458.764L26.581,458.764z M38.21,471.461
		c-9.204-3.77-11.118-12.156-11.516-15.336c-0.068,0.872-0.113,1.75-0.113,2.639l0.013,34.469c0.006,0.006,0.012,0.012,0.019,0.019
		C31.479,492.111,49.333,476.014,38.21,471.461z"/>
	<path fill="#806167" d="M34.137,435.532c-1.685,0.075-3.241-0.342-4.619-1.011c0,1.505,0,3.175,0,4.902
		C30.832,437.891,32.392,436.572,34.137,435.532z"/>
	<circle fill="#FFFFFF" cx="43.664" cy="451.549" r="11.915"/>
	<g>
		<circle fill="#FFFFFF" cx="43.658" cy="438.58" r="0.511"/>
		<circle fill="#FFFFFF" cx="41.407" cy="438.777" r="0.511"/>
		<path fill="#FFFFFF" d="M39.708,439.188c0.094,0.264-0.042,0.559-0.306,0.656c-0.268,0.096-0.561-0.041-0.658-0.307
			c-0.097-0.265,0.04-0.559,0.307-0.654C39.317,438.785,39.609,438.922,39.708,439.188z"/>
		<path fill="#FFFFFF" d="M37.623,440.061c0.14,0.244,0.058,0.559-0.186,0.699c-0.246,0.141-0.562,0.058-0.702-0.187
			c-0.14-0.245-0.057-0.558,0.187-0.699C37.17,439.734,37.483,439.817,37.623,440.061z"/>
		<circle fill="#FFFFFF" cx="35.328" cy="441.613" r="0.511"/>
		<circle fill="#FFFFFF" cx="33.731" cy="443.209" r="0.512"/>
		<circle fill="#FFFFFF" cx="32.437" cy="445.059" r="0.511"/>
		<circle fill="#FFFFFF" cx="31.482" cy="447.106" r="0.511"/>
		<circle fill="#FFFFFF" cx="30.897" cy="449.289" r="0.512"/>
		<path fill="#FFFFFF" d="M30.701,451.027c0.281,0.002,0.512,0.229,0.512,0.511s-0.229,0.511-0.512,0.511
			c-0.281,0.002-0.512-0.227-0.512-0.51C30.189,451.254,30.418,451.027,30.701,451.027z"/>
		<circle fill="#FFFFFF" cx="30.897" cy="453.788" r="0.512"/>
		<path fill="#FFFFFF" d="M31.309,455.49c0.266-0.098,0.558,0.039,0.654,0.305s-0.038,0.559-0.308,0.656
			c-0.264,0.096-0.556-0.041-0.653-0.306C30.904,455.879,31.041,455.586,31.309,455.49z"/>
		<circle fill="#FFFFFF" cx="32.437" cy="458.017" r="0.511"/>
		<circle fill="#FFFFFF" cx="33.732" cy="459.869" r="0.511"/>
		<circle fill="#FFFFFF" cx="35.329" cy="461.464" r="0.512"/>
		<circle fill="#FFFFFF" cx="37.18" cy="462.76" r="0.511"/>
		<path fill="#FFFFFF" d="M38.748,463.539c0.095-0.266,0.387-0.403,0.654-0.306c0.264,0.097,0.4,0.39,0.306,0.655
			c-0.098,0.266-0.39,0.404-0.656,0.307C38.784,464.098,38.647,463.805,38.748,463.539z"/>
		<circle fill="#FFFFFF" cx="41.409" cy="464.299" r="0.511"/>
		<circle fill="#FFFFFF" cx="43.66" cy="464.495" r="0.51"/>
		<path fill="#FFFFFF" d="M45.405,464.387c-0.048-0.277,0.136-0.543,0.413-0.59c0.28-0.051,0.546,0.135,0.597,0.414
			c0.046,0.275-0.138,0.542-0.417,0.592C45.72,464.852,45.453,464.666,45.405,464.387z"/>
		<circle fill="#FFFFFF" cx="48.09" cy="463.714" r="0.512"/>
		<circle fill="#FFFFFF" cx="50.139" cy="462.759" r="0.511"/>
		<path fill="#FFFFFF" d="M51.596,461.791c-0.18-0.216-0.153-0.537,0.062-0.717c0.217-0.185,0.539-0.156,0.723,0.061
			c0.18,0.215,0.152,0.538-0.062,0.72C52.099,462.037,51.776,462.009,51.596,461.791z"/>
		<circle fill="#FFFFFF" cx="53.585" cy="459.867" r="0.511"/>
		<circle fill="#FFFFFF" cx="54.88" cy="458.015" r="0.512"/>
		<path fill="#FFFFFF" d="M55.658,456.449c-0.263-0.096-0.4-0.389-0.305-0.652c0.096-0.269,0.389-0.406,0.657-0.309
			c0.265,0.097,0.401,0.389,0.305,0.655C56.217,456.41,55.925,456.547,55.658,456.449z"/>
		<path fill="#FFFFFF" d="M56.328,454.29c-0.277-0.048-0.462-0.312-0.413-0.589c0.048-0.279,0.313-0.468,0.595-0.417
			c0.276,0.048,0.462,0.312,0.411,0.591C56.873,454.156,56.605,454.34,56.328,454.29z"/>
		<circle fill="#FFFFFF" cx="56.616" cy="451.538" r="0.511"/>
		<path fill="#FFFFFF" d="M56.506,449.791c-0.277,0.049-0.543-0.137-0.591-0.414c-0.049-0.28,0.135-0.544,0.415-0.594
			c0.279-0.049,0.543,0.135,0.591,0.414C56.97,449.479,56.786,449.742,56.506,449.791z"/>
		<path fill="#FFFFFF" d="M56.009,447.587c-0.267,0.096-0.56-0.04-0.653-0.304c-0.099-0.267,0.038-0.562,0.303-0.658
			c0.268-0.098,0.559,0.039,0.655,0.305C56.409,447.198,56.273,447.49,56.009,447.587z"/>
		<path fill="#FFFFFF" d="M55.133,445.502c-0.242,0.141-0.556,0.059-0.694-0.186c-0.144-0.246-0.061-0.561,0.185-0.7
			c0.246-0.142,0.557-0.06,0.699,0.185C55.464,445.049,55.379,445.361,55.133,445.502z"/>
		<path fill="#FFFFFF" d="M53.913,443.601c-0.218,0.181-0.538,0.153-0.721-0.062c-0.182-0.217-0.153-0.539,0.063-0.723
			c0.215-0.183,0.538-0.156,0.718,0.062C54.155,443.098,54.128,443.42,53.913,443.601z"/>
		<circle fill="#FFFFFF" cx="51.986" cy="441.611" r="0.511"/>
		<path fill="#FFFFFF" d="M50.577,440.573c-0.14,0.242-0.45,0.327-0.694,0.186c-0.247-0.14-0.329-0.454-0.19-0.698
			c0.142-0.246,0.453-0.33,0.699-0.188C50.638,440.016,50.72,440.33,50.577,440.573z"/>
		<circle fill="#FFFFFF" cx="48.089" cy="439.362" r="0.511"/>
		<path fill="#FFFFFF" d="M46.413,438.867c-0.054,0.276-0.314,0.463-0.591,0.414c-0.281-0.049-0.467-0.314-0.418-0.594
			c0.049-0.278,0.312-0.464,0.589-0.414C46.275,438.324,46.461,438.589,46.413,438.867z"/>
	</g>
	<path fill="#806167" d="M85.4,435.532c1.686,0.075,3.239-0.342,4.619-1.011c0,1.505,0,3.175,0,4.902
		C88.705,437.891,87.146,436.572,85.4,435.532z"/>
	<path fill="#FFFFFF" d="M63.96,451.549c0,6.58,5.336,11.914,11.913,11.914c6.581,0,11.917-5.334,11.917-11.914
		s-5.336-11.914-11.917-11.914C69.296,439.635,63.96,444.969,63.96,451.549z"/>
	<g>
		<circle fill="#FFFFFF" cx="75.879" cy="438.58" r="0.512"/>
		<circle fill="#FFFFFF" cx="78.131" cy="438.777" r="0.513"/>
		<circle fill="#FFFFFF" cx="80.312" cy="439.362" r="0.512"/>
		<path fill="#FFFFFF" d="M81.915,440.061c-0.139,0.244-0.057,0.559,0.187,0.699c0.246,0.141,0.56,0.058,0.699-0.187
			c0.142-0.245,0.059-0.558-0.186-0.699C82.368,439.734,82.056,439.817,81.915,440.061z"/>
		<circle fill="#FFFFFF" cx="84.209" cy="441.613" r="0.511"/>
		<circle fill="#FFFFFF" cx="85.805" cy="443.209" r="0.512"/>
		<circle fill="#FFFFFF" cx="87.1" cy="445.059" r="0.511"/>
		<circle fill="#FFFFFF" cx="88.055" cy="447.106" r="0.512"/>
		<circle fill="#FFFFFF" cx="88.639" cy="449.289" r="0.512"/>
		<path fill="#FFFFFF" d="M88.837,451.027c-0.281,0.002-0.513,0.229-0.513,0.511s0.231,0.511,0.513,0.511
			c0.282,0.002,0.512-0.227,0.512-0.51C89.349,451.254,89.119,451.027,88.837,451.027z"/>
		<path fill="#FFFFFF" d="M88.729,453.284c-0.277-0.048-0.544,0.138-0.593,0.415c-0.048,0.279,0.137,0.545,0.418,0.593
			c0.273,0.049,0.54-0.136,0.589-0.414C89.192,453.598,89.007,453.334,88.729,453.284z"/>
		<circle fill="#FFFFFF" cx="88.055" cy="455.971" r="0.511"/>
		<circle fill="#FFFFFF" cx="87.099" cy="458.017" r="0.511"/>
		<circle fill="#FFFFFF" cx="85.805" cy="459.869" r="0.512"/>
		<circle fill="#FFFFFF" cx="84.208" cy="461.464" r="0.512"/>
		<circle fill="#FFFFFF" cx="82.357" cy="462.76" r="0.512"/>
		<circle fill="#FFFFFF" cx="80.31" cy="463.714" r="0.511"/>
		<circle fill="#FFFFFF" cx="78.129" cy="464.299" r="0.511"/>
		<path fill="#FFFFFF" d="M76.388,464.495c0-0.282-0.226-0.513-0.507-0.511c-0.284-0.002-0.514,0.228-0.514,0.511
			c-0.002,0.282,0.228,0.513,0.51,0.513C76.162,465.008,76.391,464.777,76.388,464.495z"/>
		<circle fill="#FFFFFF" cx="73.628" cy="464.299" r="0.511"/>
		<circle fill="#FFFFFF" cx="71.447" cy="463.714" r="0.511"/>
		<path fill="#FFFFFF" d="M69.844,463.014c0.139-0.242,0.057-0.557-0.186-0.696c-0.248-0.143-0.558-0.06-0.699,0.187
			c-0.145,0.245-0.061,0.557,0.184,0.697C69.391,463.343,69.703,463.26,69.844,463.014z"/>
		<path fill="#FFFFFF" d="M67.942,461.791c0.18-0.216,0.154-0.537-0.064-0.717c-0.214-0.185-0.538-0.156-0.72,0.061
			c-0.182,0.215-0.153,0.538,0.062,0.72C67.439,462.037,67.761,462.009,67.942,461.791z"/>
		<path fill="#FFFFFF" d="M66.283,460.258c0.212-0.181,0.242-0.504,0.061-0.719c-0.182-0.217-0.503-0.246-0.719-0.062
			c-0.217,0.18-0.245,0.5-0.063,0.719C65.744,460.412,66.066,460.439,66.283,460.258z"/>
		<path fill="#FFFFFF" d="M64.914,458.458c0.242-0.14,0.327-0.454,0.188-0.696c-0.142-0.246-0.455-0.33-0.699-0.189
			c-0.245,0.143-0.328,0.453-0.19,0.699C64.358,458.517,64.67,458.6,64.914,458.458z"/>
		<path fill="#FFFFFF" d="M63.878,456.449c0.264-0.096,0.403-0.389,0.306-0.652c-0.095-0.269-0.389-0.406-0.654-0.309
			c-0.267,0.097-0.404,0.389-0.309,0.655C63.321,456.41,63.613,456.547,63.878,456.449z"/>
		<path fill="#FFFFFF" d="M63.209,454.29c0.275-0.048,0.463-0.312,0.414-0.589c-0.049-0.279-0.314-0.468-0.595-0.417
			c-0.277,0.048-0.463,0.312-0.412,0.591C62.664,454.156,62.932,454.34,63.209,454.29z"/>
		<circle fill="#FFFFFF" cx="62.922" cy="451.538" r="0.511"/>
		<path fill="#FFFFFF" d="M63.031,449.791c0.275,0.049,0.543-0.137,0.592-0.414c0.049-0.28-0.135-0.544-0.414-0.594
			c-0.278-0.049-0.546,0.135-0.593,0.414C62.567,449.479,62.751,449.742,63.031,449.791z"/>
		<path fill="#FFFFFF" d="M63.529,447.587c0.266,0.096,0.56-0.04,0.654-0.304c0.098-0.267-0.038-0.562-0.306-0.658
			c-0.267-0.098-0.557,0.039-0.655,0.305C63.127,447.198,63.265,447.49,63.529,447.587z"/>
		<path fill="#FFFFFF" d="M64.404,445.502c0.242,0.141,0.556,0.059,0.697-0.186c0.142-0.246,0.058-0.561-0.188-0.7
			c-0.244-0.142-0.556-0.06-0.7,0.185C64.074,445.049,64.158,445.361,64.404,445.502z"/>
		<path fill="#FFFFFF" d="M65.625,443.601c0.218,0.181,0.537,0.153,0.719-0.062c0.184-0.217,0.154-0.539-0.061-0.723
			c-0.217-0.183-0.538-0.156-0.722,0.062C65.381,443.098,65.41,443.42,65.625,443.601z"/>
		<path fill="#FFFFFF" d="M67.16,441.939c0.182,0.216,0.504,0.246,0.718,0.063c0.219-0.18,0.247-0.504,0.066-0.72
			c-0.184-0.219-0.504-0.245-0.723-0.064C67.005,441.402,66.978,441.726,67.16,441.939z"/>
		<circle fill="#FFFFFF" cx="69.402" cy="440.317" r="0.512"/>
		<path fill="#FFFFFF" d="M70.969,439.537c0.095,0.266,0.387,0.402,0.651,0.305c0.27-0.096,0.403-0.391,0.31-0.655
			c-0.098-0.267-0.389-0.403-0.657-0.306C71.007,438.979,70.871,439.272,70.969,439.537z"/>
		<path fill="#FFFFFF" d="M73.126,438.867c0.052,0.276,0.312,0.463,0.592,0.414c0.278-0.049,0.466-0.314,0.416-0.594
			c-0.049-0.278-0.311-0.464-0.591-0.414C73.264,438.324,73.076,438.589,73.126,438.867z"/>
	</g>
	<g>
		<circle fill="#6A5055" cx="45.311" cy="446.642" r="5.614"/>
		<circle fill="#FFFFFF" cx="42.766" cy="444.654" r="0.827"/>
		<circle fill="#6A5055" cx="77.522" cy="446.642" r="5.615"/>
		<circle fill="#FFFFFF" cx="74.681" cy="444.654" r="0.827"/>
	</g>
	<g>
		<path fill="#DA9D63" d="M61.712,484.417c0,1.9-1.419,3.527-1.941,4.065c-0.524-0.538-1.943-2.165-1.943-4.065h-0.608
			c0,2.589,2.251,4.636,2.347,4.721l0.205,0.183l0.2-0.183c0.097-0.085,2.35-2.132,2.35-4.721H61.712z"/>
		<path fill="#DA9D63" d="M61.712,491.55c0,1.901-1.419,3.528-1.941,4.065c-0.524-0.537-1.943-2.164-1.943-4.065h-0.608
			c0,2.59,2.251,4.635,2.347,4.72l0.205,0.182l0.2-0.182c0.097-0.085,2.35-2.13,2.35-4.72H61.712z"/>
		<path fill="#DA9D63" d="M61.712,498.682c0,1.9-1.419,3.528-1.941,4.066c-0.524-0.538-1.943-2.166-1.943-4.066h-0.608
			c0,2.589,2.251,4.635,2.347,4.723l0.205,0.18l0.2-0.18c0.097-0.088,2.35-2.134,2.35-4.723H61.712z"/>
		<path fill="#DA9D63" d="M53.629,483.322c0,1.9-1.419,3.526-1.941,4.063c-0.523-0.537-1.941-2.163-1.941-4.063h-0.611
			c0,2.588,2.255,4.633,2.349,4.721l0.204,0.182l0.203-0.182c0.096-0.088,2.349-2.133,2.349-4.721H53.629z"/>
		<path fill="#DA9D63" d="M46.189,479.908c0,1.898-1.42,3.527-1.944,4.063c-0.522-0.536-1.942-2.165-1.942-4.063h-0.609
			c0,2.588,2.253,4.637,2.349,4.721l0.203,0.183l0.204-0.183c0.095-0.084,2.348-2.133,2.348-4.721H46.189z"/>
		<path fill="#DA9D63" d="M53.629,490.453c0,1.904-1.419,3.527-1.941,4.065c-0.523-0.538-1.941-2.161-1.941-4.065h-0.611
			c0,2.59,2.255,4.637,2.349,4.725l0.204,0.18l0.203-0.18c0.096-0.088,2.349-2.135,2.349-4.725H53.629z"/>
		<path fill="#DA9D63" d="M46.189,487.041c0,1.9-1.42,3.529-1.944,4.064c-0.522-0.535-1.942-2.164-1.942-4.064h-0.609
			c0,2.588,2.253,4.635,2.349,4.723l0.203,0.18l0.204-0.18c0.095-0.088,2.348-2.135,2.348-4.723H46.189z"/>
		<path fill="#DA9D63" d="M53.629,497.586c0,1.901-1.419,3.529-1.941,4.064c-0.523-0.535-1.941-2.163-1.941-4.064h-0.611
			c0,2.589,2.255,4.637,2.349,4.724l0.204,0.18l0.203-0.18c0.096-0.087,2.349-2.135,2.349-4.724H53.629z"/>
		<path fill="#DA9D63" d="M46.189,494.174c0,1.899-1.42,3.527-1.944,4.064c-0.522-0.537-1.942-2.165-1.942-4.064h-0.609
			c0,2.588,2.253,4.635,2.349,4.722l0.203,0.18l0.204-0.18c0.095-0.087,2.348-2.134,2.348-4.722H46.189z"/>
		<path fill="#DA9D63" d="M38.807,491.098c0,1.899-1.42,3.528-1.943,4.064c-0.521-0.536-1.943-2.165-1.943-4.064h-0.607
			c0,2.588,2.253,4.635,2.348,4.721l0.203,0.183l0.203-0.183c0.097-0.086,2.35-2.133,2.35-4.721H38.807z"/>
		<path fill="#DA9D63" d="M84.562,491.098c0,1.899-1.42,3.528-1.943,4.064c-0.523-0.536-1.941-2.165-1.941-4.064h-0.609
			c0,2.588,2.253,4.635,2.35,4.721l0.201,0.183l0.204-0.184c0.097-0.085,2.349-2.132,2.349-4.72H84.562z"/>
		<g>
			<path fill="#DA9D63" d="M69.84,483.322c0,1.9-1.421,3.526-1.943,4.063c-0.523-0.537-1.943-2.163-1.943-4.063h-0.609
				c0,2.588,2.254,4.633,2.351,4.721l0.202,0.182l0.205-0.182c0.094-0.088,2.346-2.133,2.346-4.721H69.84z"/>
			<path fill="#DA9D63" d="M77.281,479.908c0,1.898-1.419,3.527-1.943,4.063c-0.521-0.536-1.942-2.165-1.942-4.063h-0.608
				c0,2.588,2.253,4.637,2.349,4.721l0.202,0.183l0.203-0.183c0.098-0.084,2.348-2.133,2.348-4.721H77.281z"/>
			<path fill="#DA9D63" d="M69.84,490.453c0,1.904-1.421,3.527-1.943,4.065c-0.523-0.538-1.943-2.161-1.943-4.065h-0.609
				c0,2.59,2.254,4.637,2.351,4.725l0.202,0.18l0.205-0.18c0.094-0.088,2.346-2.135,2.346-4.725H69.84z"/>
			<path fill="#DA9D63" d="M77.281,487.041c0,1.9-1.419,3.529-1.943,4.064c-0.521-0.535-1.942-2.164-1.942-4.064h-0.608
				c0,2.588,2.253,4.635,2.349,4.723l0.202,0.18l0.203-0.182c0.098-0.086,2.348-2.133,2.348-4.721H77.281z"/>
			<path fill="#DA9D63" d="M69.84,497.586c0,1.901-1.421,3.529-1.943,4.064c-0.523-0.535-1.943-2.163-1.943-4.064h-0.609
				c0,2.589,2.254,4.637,2.351,4.724l0.202,0.18l0.205-0.18c0.094-0.087,2.346-2.135,2.346-4.724H69.84z"/>
			<path fill="#DA9D63" d="M77.281,494.174c0,1.899-1.419,3.527-1.943,4.064c-0.521-0.537-1.942-2.165-1.942-4.064h-0.608
				c0,2.588,2.253,4.635,2.349,4.722l0.202,0.18l0.203-0.18c0.098-0.087,2.348-2.134,2.348-4.722H77.281z"/>
		</g>
	</g>
	<g>
		<rect x="98.596" y="426.942" fill="#543F43" width="4.663" height="9.034"/>
		<path fill="#543F43" d="M101.952,425.947c0,0.65-0.527,1.179-1.177,1.179c-0.653,0-1.182-0.528-1.182-1.179
			c0-0.654,0.528-1.182,1.182-1.182C101.425,424.766,101.952,425.293,101.952,425.947z"/>
		<g>
			<path fill="#543F43" d="M98.596,436.537c-0.177,1.264-0.881,10.813-0.881,16.251h0.695c0-5.565,0.747-15.243,0.889-16.251H98.596
				z"/>
			<path fill="#543F43" d="M99.579,436.537c-0.083,1.204-0.442,10.783-0.442,16.251h0.697c0-5.53,0.369-15.171,0.445-16.251H99.579z
				"/>
			<rect x="100.564" y="436.537" fill="#543F43" width="0.695" height="16.251"/>
			<path fill="#543F43" d="M101.544,436.537c0.074,1.08,0.444,10.721,0.444,16.251h0.695c0-5.468-0.357-15.047-0.44-16.251H101.544z
				"/>
			<path fill="#543F43" d="M102.524,436.537c0.142,1.008,0.888,10.686,0.888,16.251h0.696c0-5.438-0.705-14.987-0.882-16.251
				H102.524z"/>
		</g>
	</g>
	<path fill="#543F43" d="M77.218,430.043c-1.393-1.332-7.641-10.041-18.237-10.041c-11.334,0-16.831,8.697-18.234,10.036
		l-0.013,0.001h0.012c0,0.002-0.002,0.002-0.002,0.004h0.143c1.484,0.035,13.4,0.594,18.035,9.094v0.069
		c0.006-0.013,0.015-0.023,0.021-0.036c0.006,0.013,0.014,0.023,0.021,0.036v-0.069c4.633-8.5,16.55-9.059,18.035-9.094H77.218z"/>
	<path d="M57.393,421.459c0,0,12.162,1.242,18.29,6.907c0,0-4.239-5.058-10.021-7.195C59.881,419.03,57.393,421.459,57.393,421.459z
		"/>
	<path fill="#543F43" d="M105.562,422.385L105.562,422.385L105.562,422.385C105.526,422.365,105.598,422.404,105.562,422.385
		l-13.075-8.65l-65.465-5.51l-14.209,6.546c-1.281,0.365-1.206,0.939-1.281,1.829c-0.113,1.354,1.354,1.262,2.654,1.371
		l90.468,7.409c1.297,0.109,1.908,0.099,2.021-1.255C106.754,423.213,106.234,422.867,105.562,422.385z"/>
</g>
<g>
	<path fill="#CD8A3D" d="M104.641,626.237c-15.898-4.903-23.732,5.793-23.732,5.793c-12.892-0.957-20.155,5.481-21.947,7.316
		c-1.791-1.835-9.055-8.273-21.946-7.316c0,0-7.836-10.696-23.734-5.793c0,0,14.249,6.445,11.867,19.386
		c-2.911,15.819-10.748,50.136,12.988,56.155c0,0,0.43,0.106,1.206,0.278L42.72,711l2.945-7.803c3.577,0.526,8.148,1,13.075,1.027
		v0.003c0.072,0,0.146-0.002,0.221-0.002s0.148,0.002,0.222,0.002v-0.003c4.854-0.027,9.359-0.489,12.913-1.004L75.032,711
		l3.363-8.902c0.894-0.193,1.394-0.319,1.394-0.319c23.732-6.02,15.896-40.336,12.986-56.155
		C90.394,632.683,104.641,626.237,104.641,626.237z"/>
	<path fill="#543F43" d="M59.06,639.527c1.795-1.861,9.03-8.343,21.847-7.506c-6.179-7.596-13.568-12.51-21.933-12.51
		c-8.375,0-16.729,5.633-21.951,12.522C49.959,631.118,57.254,637.658,59.06,639.527z"/>
	<path fill="#A2610A" d="M18.679,627.154c4.157,3.135,8.423,8.217,8.728,14.897c1.657-3.927,5.68-7.154,8.011-8.773l-0.03-0.043
		C35.132,632.894,29.686,625.852,18.679,627.154z M82.536,633.235l-0.094,0.128c2.432,1.705,6.546,5.058,8.058,9.105
		c0.142-6.887,4.5-12.115,8.743-15.314C88.237,625.852,82.793,632.894,82.536,633.235z"/>
	<g>
		<circle fill="#FFFFFF" cx="43.203" cy="648.823" r="9.579"/>
		<path fill="#A2610A" d="M44.291,637.564c0,0.597-0.482,1.08-1.082,1.08c-0.596,0-1.08-0.483-1.08-1.08
			c0-0.598,0.484-1.082,1.08-1.082C43.809,636.482,44.291,636.967,44.291,637.564z M39.021,637.223
			c-0.562,0.203-0.852,0.824-0.645,1.384c0.202,0.562,0.822,0.851,1.383,0.646c0.562-0.204,0.852-0.823,0.646-1.386
			C40.202,637.307,39.582,637.016,39.021,637.223z M35.336,639.349c-0.459,0.385-0.517,1.066-0.133,1.521
			c0.384,0.461,1.065,0.519,1.523,0.134c0.455-0.384,0.516-1.063,0.134-1.522C36.476,639.024,35.795,638.965,35.336,639.349z
			 M32.602,642.607c-0.301,0.518-0.121,1.178,0.395,1.477c0.52,0.299,1.18,0.122,1.479-0.394c0.297-0.519,0.12-1.18-0.397-1.479
			C33.56,641.913,32.9,642.092,32.602,642.607z M31.147,646.604c-0.105,0.591,0.285,1.149,0.876,1.253
			c0.589,0.104,1.147-0.288,1.251-0.876c0.105-0.587-0.287-1.147-0.875-1.25C31.812,645.625,31.251,646.016,31.147,646.604z
			 M31.147,650.858c0.104,0.59,0.663,0.981,1.252,0.877c0.588-0.104,0.98-0.663,0.875-1.251c-0.104-0.589-0.662-0.982-1.253-0.876
			C31.437,649.712,31.042,650.271,31.147,650.858z M32.602,654.857c0.299,0.518,0.958,0.695,1.477,0.395
			c0.518-0.299,0.694-0.958,0.397-1.478c-0.3-0.515-0.96-0.693-1.479-0.393C32.48,653.679,32.301,654.342,32.602,654.857z
			 M35.336,658.117c0.459,0.383,1.14,0.325,1.521-0.136c0.386-0.456,0.325-1.139-0.13-1.523c-0.458-0.381-1.14-0.322-1.524,0.136
			C34.819,657.05,34.877,657.733,35.336,658.117z M39.021,660.243c0.562,0.206,1.183-0.083,1.385-0.647
			c0.205-0.56-0.085-1.181-0.646-1.384c-0.561-0.204-1.181,0.083-1.384,0.647C38.169,659.419,38.459,660.039,39.021,660.243z
			 M43.209,660.982c0.6,0,1.082-0.484,1.08-1.082c0.002-0.597-0.484-1.08-1.08-1.08s-1.08,0.483-1.08,1.082
			C42.129,660.498,42.613,660.982,43.209,660.982z M47.401,660.243c0.559-0.204,0.848-0.822,0.643-1.386
			c-0.202-0.562-0.824-0.85-1.386-0.646c-0.559,0.203-0.85,0.824-0.644,1.386C46.22,660.156,46.84,660.445,47.401,660.243z
			 M51.084,658.117c0.458-0.384,0.517-1.067,0.131-1.523c-0.382-0.458-1.062-0.517-1.521-0.133
			c-0.455,0.382-0.516,1.063-0.132,1.523C49.943,658.441,50.625,658.499,51.084,658.117z M53.818,654.857
			c0.299-0.516,0.121-1.177-0.396-1.476c-0.516-0.301-1.178-0.122-1.476,0.395c-0.299,0.518-0.122,1.177,0.397,1.478
			C52.857,655.551,53.521,655.375,53.818,654.857z M55.272,650.858c0.105-0.588-0.285-1.146-0.875-1.25
			c-0.588-0.104-1.149,0.289-1.254,0.878c-0.104,0.586,0.29,1.146,0.879,1.251C54.609,651.839,55.171,651.446,55.272,650.858z
			 M55.272,646.605c-0.102-0.588-0.663-0.98-1.25-0.875c-0.589,0.103-0.98,0.663-0.879,1.25c0.104,0.588,0.666,0.979,1.254,0.88
			C54.983,647.753,55.376,647.194,55.272,646.605z M53.818,642.607c-0.297-0.516-0.959-0.696-1.475-0.396
			c-0.52,0.3-0.696,0.96-0.397,1.479c0.298,0.518,0.96,0.691,1.476,0.394C53.939,643.785,54.117,643.125,53.818,642.607z
			 M51.084,639.349c-0.459-0.384-1.141-0.326-1.522,0.134c-0.384,0.458-0.323,1.138,0.132,1.523c0.459,0.383,1.14,0.325,1.524-0.134
			C51.601,640.415,51.542,639.733,51.084,639.349z M47.401,637.223c-0.562-0.207-1.182,0.084-1.387,0.645
			c-0.206,0.562,0.085,1.182,0.646,1.388c0.562,0.202,1.182-0.086,1.387-0.648C48.249,638.047,47.96,637.426,47.401,637.223z"/>
		<circle fill="#7C3F00" cx="43.203" cy="648.823" r="4.353"/>
	</g>
	<g>
		<circle fill="#FFFFFF" cx="74.713" cy="648.823" r="9.579"/>
		<path fill="#A2610A" d="M74.705,636.482c0.599,0,1.081,0.484,1.081,1.082c0,0.597-0.482,1.08-1.081,1.08
			c-0.598,0-1.08-0.483-1.08-1.08C73.625,636.967,74.107,636.482,74.705,636.482z M77.511,637.867
			c-0.203,0.562,0.083,1.182,0.645,1.386c0.56,0.204,1.183-0.084,1.386-0.646c0.204-0.56-0.085-1.181-0.646-1.384
			C78.334,637.016,77.715,637.307,77.511,637.867z M81.057,639.481c-0.383,0.459-0.324,1.139,0.133,1.522
			c0.458,0.385,1.141,0.327,1.521-0.134c0.386-0.455,0.326-1.137-0.132-1.521C82.123,638.965,81.44,639.024,81.057,639.481z
			 M83.839,642.212c-0.518,0.299-0.695,0.96-0.396,1.479c0.297,0.516,0.957,0.692,1.477,0.394c0.518-0.299,0.694-0.959,0.394-1.477
			C85.016,642.092,84.354,641.913,83.839,642.212z M85.518,645.73c-0.589,0.103-0.981,0.663-0.877,1.25
			c0.103,0.588,0.666,0.98,1.252,0.876c0.589-0.104,0.979-0.662,0.877-1.253C86.665,646.016,86.104,645.625,85.518,645.73z
			 M85.893,649.608c-0.586-0.106-1.149,0.287-1.252,0.876c-0.104,0.588,0.288,1.147,0.876,1.251c0.59,0.104,1.148-0.287,1.253-0.877
			C86.872,650.271,86.479,649.712,85.893,649.608z M84.919,653.382c-0.52-0.301-1.18-0.122-1.477,0.393
			c-0.299,0.52-0.121,1.179,0.396,1.478c0.516,0.301,1.177,0.123,1.474-0.395C85.613,654.342,85.437,653.679,84.919,653.382z
			 M82.712,656.594c-0.382-0.458-1.064-0.517-1.522-0.136c-0.456,0.385-0.516,1.067-0.131,1.523
			c0.382,0.461,1.064,0.519,1.522,0.136C83.037,657.733,83.097,657.05,82.712,656.594z M79.541,658.859
			c-0.203-0.564-0.826-0.852-1.386-0.647c-0.56,0.203-0.848,0.824-0.645,1.384c0.204,0.564,0.823,0.854,1.385,0.647
			C79.456,660.039,79.745,659.419,79.541,658.859z M75.786,659.902c0-0.599-0.482-1.082-1.081-1.082c-0.596,0-1.08,0.483-1.078,1.08
			c-0.002,0.598,0.48,1.082,1.078,1.082C75.304,660.982,75.786,660.498,75.786,659.902z M71.901,659.598
			c0.204-0.562-0.085-1.183-0.646-1.386c-0.56-0.204-1.183,0.083-1.385,0.646c-0.205,0.563,0.083,1.182,0.645,1.386
			C71.078,660.445,71.696,660.156,71.901,659.598z M68.354,657.984c0.385-0.46,0.324-1.142-0.134-1.523
			c-0.455-0.384-1.139-0.325-1.521,0.133c-0.384,0.456-0.325,1.14,0.132,1.523C67.29,658.499,67.973,658.441,68.354,657.984z
			 M65.572,655.254c0.518-0.301,0.697-0.96,0.398-1.478c-0.301-0.517-0.961-0.695-1.479-0.395c-0.517,0.299-0.692,0.96-0.394,1.476
			C64.397,655.375,65.057,655.551,65.572,655.254z M63.895,651.737c0.588-0.105,0.982-0.665,0.878-1.251
			c-0.104-0.589-0.666-0.982-1.254-0.878c-0.589,0.104-0.979,0.662-0.875,1.25C62.747,651.446,63.307,651.839,63.895,651.737z
			 M63.519,647.86c0.588,0.1,1.15-0.292,1.254-0.88c0.103-0.587-0.29-1.147-0.878-1.25c-0.588-0.105-1.148,0.287-1.251,0.875
			C62.539,647.194,62.932,647.753,63.519,647.86z M64.492,644.084c0.518,0.298,1.179,0.124,1.479-0.394
			c0.299-0.519,0.119-1.179-0.398-1.479c-0.516-0.301-1.175-0.12-1.474,0.396C63.8,643.125,63.976,643.785,64.492,644.084z
			 M66.698,640.872c0.384,0.459,1.067,0.517,1.522,0.134c0.456-0.386,0.519-1.065,0.132-1.523c-0.38-0.46-1.062-0.518-1.521-0.134
			C66.374,639.733,66.315,640.415,66.698,640.872z M69.87,638.606c0.203,0.562,0.824,0.851,1.386,0.648
			c0.561-0.206,0.85-0.825,0.646-1.388c-0.205-0.561-0.823-0.852-1.384-0.645C69.954,637.426,69.666,638.047,69.87,638.606z"/>
		<circle fill="#7C3F00" cx="74.713" cy="648.823" r="4.354"/>
	</g>
	<circle fill="#FFFFFF" cx="41.19" cy="647.062" r="0.696"/>
	<circle fill="#FFFFFF" cx="72.661" cy="647.062" r="0.697"/>
	<polygon fill="#854A00" points="58.851,659.997 58.851,659.997 56.091,651.853 61.61,651.853 	"/>
	<path fill="#DCA971" d="M37.341,691.186l2.788,5.574l2.786-5.574H37.341z M46.08,684.618h-5.575l2.788,5.574L46.08,684.618z
		 M43.611,691.186l2.788,5.574l2.786-5.574H43.611z M52.351,684.618h-5.575l2.789,5.574L52.351,684.618z M42.915,678.284h-5.574
		l2.788,5.576L42.915,678.284z M49.186,678.284h-5.574l2.788,5.576L49.186,678.284z M46.08,671.716h-5.575l2.788,5.576
		L46.08,671.716z M77.436,684.618h-5.574l2.787,5.574L77.436,684.618z M80.541,678.284H74.97l2.787,5.576L80.541,678.284z
		 M49.884,691.186l2.786,5.574l2.788-5.574H49.884z M77.436,671.716h-5.574l2.787,5.576L77.436,671.716z M55.458,678.284h-5.574
		l2.786,5.576L55.458,678.284z M64.894,684.618h-5.577l2.789,5.574L64.894,684.618z M58.621,684.618h-5.575l2.788,5.574
		L58.621,684.618z M39.806,684.618h-5.572l2.787,5.574L39.806,684.618z M33.857,683.86l2.787-5.576H31.07L33.857,683.86z
		 M27.963,684.618l2.787,5.574l2.787-5.574H27.963z M56.154,691.186l2.787,5.574l2.787-5.574H56.154z M43.293,703.094l1.009-2.018
		c0.026-0.074,0.043-0.12,0.043-0.12l0.015,0.004l1.721-3.441h-5.575L43.293,703.094z M34.649,698.348
		c1.202,0.601,2.526,1.097,3.982,1.464c0,0,0.012,0.004,0.027,0.006l1.146-2.299h-5.572L34.649,698.348z M79.279,699.815l0.01-0.004
		c1.465-0.371,2.796-0.867,4.008-1.474l0.409-0.819h-5.574L79.279,699.815z M33.537,671.716h-5.574l2.787,5.576L33.537,671.716z
		 M24.729,684.618c0.262,1.092,0.579,2.151,0.952,3.17l1.585-3.17H24.729z M31.07,691.186l2.787,5.574l2.787-5.574H31.07z
		 M27.585,683.86l2.787-5.576h-5.573L27.585,683.86z M74.271,678.284h-5.573l2.787,5.576L74.271,678.284z M29.038,693.857
		l1.334-2.672h-3.144C27.761,692.133,28.362,693.024,29.038,693.857z M23.622,671.716c-0.02,0.672-0.031,1.344-0.031,2.01
		c0,0.619,0.012,1.237,0.028,1.849l0.858,1.718l2.789-5.576H23.622z M52.351,671.716h-5.575l2.789,5.576L52.351,671.716z
		 M58.621,671.716h-5.575l2.788,5.576L58.621,671.716z M61.729,678.284h-5.574l2.787,5.576L61.729,678.284z M33.451,697.688
		l0.086-0.17h-0.361C33.266,697.575,33.356,697.633,33.451,697.688z M39.806,671.716h-5.572l2.787,5.576L39.806,671.716z
		 M92.249,687.768c0.368-1.014,0.684-2.064,0.944-3.149h-2.519L92.249,687.768z M83.706,671.716h-5.574l2.787,5.576L83.706,671.716z
		 M64.894,671.716h-5.577l2.789,5.576L64.894,671.716z M94.104,678.93c0.019-0.214,0.038-0.429,0.055-0.646h-0.376L94.104,678.93z
		 M67.687,701.715c0.486-0.049,0.971-0.1,1.458-0.157l2.02-4.039h-5.575L67.687,701.715z M84.484,697.682
		c0.087-0.054,0.175-0.108,0.263-0.163h-0.343L84.484,697.682z M61.629,702.14c0.323-0.011,0.646-0.021,0.973-0.036l2.292-4.585
		h-5.577L61.629,702.14z M71.164,671.716h-5.575l2.787,5.576L71.164,671.716z M55.338,702.104c0.327,0.015,0.649,0.022,0.973,0.033
		l2.311-4.619h-5.575L55.338,702.104z M48.796,701.562c0.488,0.059,0.973,0.105,1.455,0.154l2.1-4.197h-5.575L48.796,701.562z
		 M83.706,684.618h-5.574l2.787,5.574L83.706,684.618z M74.97,691.186l2.787,5.574l2.784-5.574H74.97z M68.697,691.186l2.787,5.574
		l2.786-5.574H68.697z M74.648,703.094l2.787-5.575h-5.574L74.648,703.094z M68,678.284h-5.575l2.789,5.576L68,678.284z
		 M62.425,691.186l2.789,5.574L68,691.186H62.425z M71.164,684.618h-5.575l2.787,5.574L71.164,684.618z M88.859,693.884
		c0.687-0.839,1.298-1.741,1.835-2.698h-3.184L88.859,693.884z M89.977,671.716h-5.572l2.785,5.576L89.977,671.716z M94.301,671.716
		h-3.626l2.787,5.576l0.84-1.683c0.021-0.625,0.03-1.253,0.03-1.884C94.332,673.058,94.32,672.388,94.301,671.716z M84.027,696.76
		l2.786-5.574H81.24L84.027,696.76z M86.813,678.284H81.24l2.787,5.576L86.813,678.284z M93.084,678.284h-5.573l2.787,5.576
		L93.084,678.284z M84.404,684.618l2.785,5.574l2.787-5.574H84.404z"/>
	<g>
		<path fill="#A2610A" d="M23.688,653.784c0,0,10.847,20.853,3.713,41.338C27.401,695.122,9.791,685.062,23.688,653.784z"/>
		<path fill="#A2610A" d="M94.347,653.784c0,0-10.886,20.853-3.753,41.338C90.594,695.122,108.247,685.062,94.347,653.784z"/>
		<path fill="#7C3F00" d="M25.6,666.585c-1.181,0.987-2.588,2.012-4.213,2.943c-0.244,1.484-0.403,2.89-0.475,4.21
			c2.279-1.388,4.075-2.95,5.336-4.223C26.049,668.501,25.83,667.521,25.6,666.585z M27.258,677.7
			c-1.393,1.353-3.286,2.932-5.661,4.319c0.286,1.172,0.639,2.232,1.037,3.19c2.138-1.537,3.712-3.124,4.674-4.211
			c0.007-0.309,0.013-0.614,0.013-0.919C27.32,679.276,27.295,678.482,27.258,677.7z M27.058,674.973
			c-0.103-1.034-0.23-2.046-0.382-3.029c-1.477,1.36-3.417,2.879-5.806,4.18c0.025,1.345,0.13,2.596,0.308,3.755
			C23.863,678.197,25.854,676.295,27.058,674.973z M26.072,690.694c0.545-2.216,0.89-4.421,1.075-6.582
			c-0.973,0.936-2.182,1.971-3.622,2.977C24.349,688.609,25.252,689.799,26.072,690.694z M23.753,660.481
			c-0.785,2.241-1.39,4.343-1.835,6.313c1.186-0.8,2.219-1.627,3.09-2.41C24.598,662.947,24.167,661.637,23.753,660.481z"/>
		<path fill="#7C3F00" d="M91.338,672.274c-0.151,1.005-0.28,2.037-0.381,3.09c1.282,1.353,3.253,3.151,5.854,4.727
			c0.188-1.165,0.307-2.419,0.34-3.77C94.79,675.08,92.842,673.618,91.338,672.274z M90.719,680.27c0,0.386,0.005,0.774,0.015,1.165
			c1.025,1.106,2.563,2.57,4.562,3.971c0.413-0.961,0.78-2.023,1.081-3.202c-2.311-1.311-4.187-2.811-5.604-4.142
			C90.74,678.792,90.719,679.525,90.719,680.27z M96.683,669.766c-1.643-0.903-3.072-1.909-4.281-2.893
			c-0.233,0.955-0.452,1.956-0.649,2.989c1.313,1.281,3.114,2.794,5.382,4.121C97.072,672.663,96.921,671.252,96.683,669.766z
			 M91.928,690.695c0.789-0.858,1.657-1.992,2.456-3.429c-1.353-0.922-2.515-1.881-3.472-2.769
			C91.096,686.541,91.421,688.615,91.928,690.695z M94.293,660.517c-0.434,1.225-0.886,2.624-1.317,4.165
			c0.908,0.791,1.982,1.615,3.202,2.402C95.727,665.039,95.111,662.856,94.293,660.517z"/>
	</g>
	<g>
		<rect x="107.105" y="621.82" fill="#543F43" width="4.661" height="9.034"/>
		<circle fill="#543F43" cx="109.281" cy="620.825" r="1.181"/>
		<g>
			<path fill="#543F43" d="M107.104,631.417c-0.178,1.264-0.882,10.812-0.882,16.25h0.696c0-5.565,0.747-15.244,0.889-16.25H107.104
				z"/>
			<path fill="#543F43" d="M108.087,631.417c-0.084,1.204-0.44,10.782-0.44,16.25h0.696c0-5.53,0.367-15.172,0.444-16.25H108.087z"
				/>
			<rect x="109.071" y="631.417" fill="#543F43" width="0.695" height="16.25"/>
			<path fill="#543F43" d="M110.051,631.417c0.077,1.078,0.444,10.72,0.444,16.25h0.697c0-5.468-0.358-15.046-0.442-16.25H110.051z"
				/>
			<path fill="#543F43" d="M111.031,631.417c0.144,1.006,0.888,10.685,0.888,16.25h0.697c0-5.438-0.705-14.986-0.882-16.25H111.031z
				"/>
		</g>
	</g>
	<path d="M60.045,619.543c-1.798,1.16-3.345,2.164-3.345,2.164s8.386-0.711,16.719,10.673c2.24-0.379,4.734-0.538,7.487-0.358
		C74.994,624.751,67.971,619.943,60.045,619.543z"/>
	<polygon fill="#543F43" points="114.207,618.687 113.875,619.927 4.231,623.408 4,622.36 11.975,613.625 105.485,608.188 	"/>
</g>
</svg>
